<svg width="20" height="20" viewBox="0 0 20 20" fill="none" xmlns="http://www.w3.org/2000/svg">
<path fill-rule="evenodd" clip-rule="evenodd" d="M4.15076 4.22208C4.54129 3.83156 5.17445 3.83156 5.56498 4.22208L13.7568 12.4139L13.7572 6.00022C13.7572 5.49041 14.1386 5.06971 14.6317 5.00801L14.7572 5.00022C15.267 5.00022 15.6877 5.3817 15.7494 5.87478L15.7572 6.00022L15.7574 14.8287L15.7556 14.889L15.7466 14.976L15.7186 15.1054L15.6767 15.2229L15.6272 15.3224L15.5427 15.4479L15.4645 15.5358L15.4093 15.587L15.3082 15.6634L15.2086 15.7213L15.099 15.7688L14.993 15.8008L14.8779 15.8214C14.8379 15.8263 14.7976 15.8287 14.7574 15.8287L6.00002 15.8287C5.44773 15.8287 5.00002 15.381 5.00002 14.8287C5.00002 14.3189 5.3815 13.8982 5.87458 13.8365L6.00002 13.8287L12.3426 13.8281L4.15076 5.6363C3.76024 5.24577 3.76024 4.61261 4.15076 4.22208Z" fill="#06BA63"/>
</svg>
