<svg width="24" height="24" viewBox="0 0 20 20" fill="none" xmlns="http://www.w3.org/2000/svg">
<path fill-rule="evenodd" clip-rule="evenodd" d="M14.2639 18.3262L14.1667 18.3332H2.5L2.40282 18.3262L2.30892 18.3057C1.97146 18.2067 1.71301 17.8513 1.67227 17.413L1.66667 17.2915V2.70817L1.67227 2.58669C1.71671 2.10848 2.02025 1.72906 2.40282 1.67351L2.5 1.6665H14.1667L14.2639 1.67351L14.3577 1.69402C14.6952 1.79298 14.9537 2.14833 14.9944 2.58669L15 2.70817V6.6665H13.3333V3.33317H3.33333V16.6665H13.3333V14.9998H15V17.2915L14.9944 17.413C14.95 17.8912 14.6464 18.2706 14.2639 18.3262ZM4.16667 4.99984C4.16667 4.5396 4.53976 4.1665 5 4.1665H8.33333C8.79357 4.1665 9.16667 4.5396 9.16667 4.99984C9.16667 5.46007 8.79357 5.83317 8.33333 5.83317H5C4.53976 5.83317 4.16667 5.46007 4.16667 4.99984ZM5 7.49984C4.53976 7.49984 4.16667 7.87293 4.16667 8.33317C4.16667 8.79341 4.53976 9.1665 5 9.1665H11.6667C12.1269 9.1665 12.5 8.79341 12.5 8.33317C12.5 7.87293 12.1269 7.49984 11.6667 7.49984H5ZM4.16667 11.6665C4.16667 11.2063 4.53976 10.8332 5 10.8332H6.66667C7.1269 10.8332 7.5 11.2063 7.5 11.6665C7.5 12.1267 7.1269 12.4998 6.66667 12.4998H5C4.53976 12.4998 4.16667 12.1267 4.16667 11.6665ZM5 14.1665C4.53976 14.1665 4.16667 14.5396 4.16667 14.9998C4.16667 15.4601 4.53976 15.8332 5 15.8332H10C10.4602 15.8332 10.8333 15.4601 10.8333 14.9998C10.8333 14.5396 10.4602 14.1665 10 14.1665H5ZM16.372 6.78854L11.7887 11.3719L11.7525 11.4132C11.6972 11.4855 11.6667 11.5744 11.6667 11.6665V12.9165L11.6695 12.9651C11.6935 13.1723 11.8697 13.3332 12.0833 13.3332H13.3333L13.3881 13.3296C13.4784 13.3176 13.5628 13.2762 13.628 13.2111L18.2113 8.6278L18.246 8.58855C18.3731 8.42509 18.3615 8.18874 18.2113 8.03854L16.9613 6.78854L16.922 6.75388C16.7586 6.62679 16.5222 6.63834 16.372 6.78854Z" fill="#646E7B"/>
</svg>
