<svg width="24" height="24" viewBox="0 0 24 24" fill="none" xmlns="http://www.w3.org/2000/svg">
<path d="M11.8358 17.6602C11.7822 14.9935 9.60469 12.8428 6.91792 12.8428C4.23116 12.8428 2.0536 14.9868 2 17.6602V18.9399C2 19.7037 2.61642 20.3202 3.38023 20.3202H10.4422C11.206 20.3202 11.8224 19.7037 11.8224 18.9399V17.6602H11.8358ZM3.67504 19.0404C3.46064 19.0404 3.29313 18.8662 3.29313 18.6585V17.6602C3.34673 15.697 4.94807 14.1292 6.92462 14.1292C8.90117 14.1292 10.5025 15.7037 10.5561 17.6602V18.6585C10.5561 18.8729 10.3819 19.0404 10.1742 19.0404H3.67504Z" fill="#EB4511"/>
<path d="M21.9999 17.6602C21.9463 14.9935 19.7688 12.8428 17.082 12.8428C14.3952 12.8428 12.2177 14.9868 12.1641 17.6602V18.9399C12.1641 19.7037 12.7805 20.3202 13.5443 20.3202H20.6063C21.3701 20.3202 21.9865 19.7037 21.9865 18.9399V17.6602H21.9999ZM13.8324 19.0404C13.618 19.0404 13.4505 18.8662 13.4505 18.6585V17.6602C13.5041 15.697 15.1054 14.1292 17.082 14.1292C19.0518 14.1292 20.6599 15.7037 20.7135 17.6602V18.6585C20.7135 18.8729 20.5393 19.0404 20.3316 19.0404H13.8324Z" fill="#EB4511"/>
<path d="M11.9766 8.09883C13.0084 8.09883 13.6584 7.2278 13.6584 6.47069C13.6584 5.95477 13.2898 5.77387 13.2898 5.38526C13.2898 5.07035 13.4841 5.12395 13.4841 4.80905C13.4841 4.60134 13.2496 4.33333 13.0084 4.13233C13.0553 4.26633 13.0553 4.35343 13.0553 4.57454C13.0553 4.90285 12.7203 5.03015 12.7203 5.33836C12.7203 5.71357 12.9481 5.69347 12.9481 6.02178C12.9481 6.19598 12.8342 6.44389 12.6332 6.44389C12.4389 6.44389 12.2982 6.20268 12.2982 5.98157C12.2982 5.60636 12.6265 5.38526 12.6265 5.04355C12.6265 4.51424 12.0704 4.03853 12.0704 3.47571C12.0704 3.33501 12.0704 3.1675 12.2044 3C11.8895 3.1407 11.7019 3.26131 11.7019 3.47571C11.7019 3.71022 11.9565 3.95142 11.9565 4.19933C11.9565 4.55444 11.5411 4.86935 11.5411 5.23786C11.5411 5.59966 11.7756 5.68007 11.7756 5.98827C11.7756 6.24958 11.5947 6.45059 11.4004 6.45059C11.2061 6.45059 11.0386 6.24288 11.0386 6.01507C11.0386 5.68007 11.4406 5.50586 11.4406 5.23116C11.4406 4.93635 11.1659 4.80234 11.1659 4.62814C11.1659 4.50754 11.2798 4.38023 11.387 4.23953C11.0319 4.38023 10.7974 4.63484 10.7974 4.80234C10.7974 4.98325 10.9515 5.03015 10.9515 5.25796C10.9515 5.62647 10.3284 6.00167 10.3284 6.50419C10.3485 7.0469 10.784 8.09883 11.9766 8.09883Z" fill="#EB4511"/>
<path d="M18.0067 14.8925C17.9397 11.6362 15.2797 9.00977 12.0033 9.00977C8.72697 9.00977 6.067 11.6295 6 14.8925V16.4604C6 17.3917 6.75712 18.1488 7.68844 18.1488H10.5561V17.6597C10.5427 17.2845 10.4824 16.9227 10.3618 16.5877H8.03685C7.77554 16.5877 7.56784 16.3799 7.56784 16.1186V14.8992C7.63484 12.5073 9.59129 10.5843 12.0033 10.5843C14.4154 10.5843 16.3719 12.5073 16.4389 14.8992V16.1186C16.4389 16.3799 16.2312 16.5877 15.9698 16.5877H13.6449C13.531 16.9294 13.464 17.2845 13.4506 17.6597V18.1488H16.3183C17.2496 18.1488 18.0067 17.3917 18.0067 16.4604V14.8925Z" fill="#EB4511"/>
</svg>
