<svg width="16" height="16" viewBox="0 0 16 16" fill="none" xmlns="http://www.w3.org/2000/svg">
<g clip-path="url(#clip0_5472_16570)">
<path d="M1.14282 1.7145C1.14282 1.39891 1.39866 1.14307 1.71426 1.14307C2.02985 1.14307 2.28569 1.39891 2.28569 1.7145V2.85734C2.28569 3.17293 2.02985 3.42877 1.71426 3.42877C1.39866 3.42877 1.14282 3.17293 1.14282 2.85734V1.7145Z" fill="white"/>
<path d="M7.42847 1.7145C7.42847 1.39891 7.68431 1.14307 7.9999 1.14307C8.3155 1.14307 8.57134 1.39891 8.57134 1.7145V7.42878C8.57134 7.74438 8.3155 8.00022 7.9999 8.00022C7.68431 8.00022 7.42847 7.74438 7.42847 7.42878V1.7145Z" fill="white"/>
<path d="M13.7144 1.7145C13.7144 1.39891 13.9702 1.14307 14.2858 1.14307C14.6014 1.14307 14.8572 1.3989 14.8572 1.7145V5.14308C14.8572 5.45867 14.6014 5.71451 14.2858 5.71451C13.9702 5.71451 13.7144 5.45868 13.7144 5.14308V1.7145Z" fill="white"/>
<path d="M16.0001 7.42833C16.0001 7.11276 15.7443 6.85693 15.4287 6.85693H13.143C12.8274 6.85693 12.5715 7.11277 12.5715 7.42837C12.5715 7.74396 12.8274 7.9998 13.143 7.9998H13.7144V14.2855C13.7144 14.6011 13.9702 14.8569 14.2858 14.8569C14.6014 14.8569 14.8573 14.6011 14.8573 14.2855V7.99977H15.4287C15.7443 7.99977 16.0001 7.74393 16.0001 7.42833Z" fill="white"/>
<path d="M6.28564 9.7145C6.28564 10.0301 6.54148 10.2859 6.85708 10.2859H7.42851V14.2859C7.42851 14.6015 7.68435 14.8574 7.99995 14.8574C8.31554 14.8574 8.57138 14.6015 8.57138 14.2859V10.2859H9.14281C9.45841 10.2859 9.71425 10.0301 9.71425 9.7145C9.71425 9.39891 9.45841 9.14307 9.14281 9.14307H6.85708C6.54148 9.14307 6.28564 9.39891 6.28564 9.7145Z" fill="white"/>
<path d="M0 5.14272C0 5.45832 0.25584 5.71416 0.571435 5.71416H1.14287V14.2856C1.14287 14.6012 1.39871 14.857 1.7143 14.857C2.0299 14.857 2.28574 14.6012 2.28574 14.2856V5.71416H2.85717C3.17277 5.71416 3.42861 5.45832 3.42861 5.14272C3.42861 4.82713 3.17277 4.57129 2.85717 4.57129H0.571436C0.255841 4.57129 0 4.82713 0 5.14272Z" fill="white"/>
</g>
<defs>
<clipPath id="clip0_5472_16570">
<rect width="16" height="16" fill="white"/>
</clipPath>
</defs>
</svg>
