<svg width="24" height="24" viewBox="0 0 24 24" fill="none" xmlns="http://www.w3.org/2000/svg">
<path fill-rule="evenodd" clip-rule="evenodd" d="M11.5 17C11.7761 17 12 17.4477 12 18C12 18.5523 11.7761 19 11.5 19H2.5C2.22386 19 2 18.5523 2 18C2 17.4477 2.22386 17 2.5 17H11.5ZM21 11C21.5523 11 22 11.4477 22 12C22 12.5523 21.5523 13 21 13H3C2.44772 13 2 12.5523 2 12C2 11.4477 2.44772 11 3 11H21ZM21 5C21.5523 5 22 5.44772 22 6C22 6.55228 21.5523 7 21 7H3C2.44772 7 2 6.55228 2 6C2 5.44772 2.44772 5 3 5H21Z" fill="#fff"/>
</svg>
