<svg width="24" height="24" viewBox="0 0 24 24" fill="none" xmlns="http://www.w3.org/2000/svg">
<path d="M3 15L3.11662 15.0067C3.5757 15.06 3.93995 15.4243 3.99327 15.8834L4 16V20H8L8.11662 20.0067C8.61396 20.0645 9 20.4872 9 21C9 21.5128 8.61396 21.9355 8.11662 21.9933L8 22H3L2.88338 21.9933C2.4243 21.94 2.06005 21.5757 2.00673 21.1166L2 21V16L2.00673 15.8834C2.06005 15.4243 2.4243 15.06 2.88338 15.0067L3 15Z" fill="#737DF0"/>
<path d="M21 15C21.5128 15 21.9355 15.386 21.9933 15.8834L22 16V21C22 21.5128 21.614 21.9355 21.1166 21.9933L21 22H16C15.4477 22 15 21.5523 15 21C15 20.4872 15.386 20.0645 15.8834 20.0067L16 20H20V16C20 15.4872 20.386 15.0645 20.8834 15.0067L21 15Z" fill="#737DF0"/>
<path d="M8 2C8.55228 2 9 2.44772 9 3C9 3.51284 8.61396 3.93551 8.11662 3.99327L8 4H4V8C4 8.51284 3.61396 8.93551 3.11662 8.99327L3 9C2.48716 9 2.06449 8.61396 2.00673 8.11662L2 8V3C2 2.48716 2.38604 2.06449 2.88338 2.00673L3 2H8Z" fill="#737DF0"/>
<path d="M21 2L21.1166 2.00673C21.5757 2.06005 21.94 2.4243 21.9933 2.88338L22 3V8L21.9933 8.11662C21.94 8.5757 21.5757 8.93995 21.1166 8.99327L21 9L20.8834 8.99327C20.4243 8.93995 20.06 8.5757 20.0067 8.11662L20 8V4H16L15.8834 3.99327C15.386 3.93551 15 3.51284 15 3C15 2.48716 15.386 2.06449 15.8834 2.00673L16 2H21Z" fill="#737DF0"/>
<path fill-rule="evenodd" clip-rule="evenodd" d="M5 11H6V6H18V11H19C19.5523 11 20 11.4477 20 12C20 12.5523 19.5523 13 19 13H18V18H6V13H5C4.44772 13 4 12.5523 4 12C4 11.4477 4.44772 11 5 11ZM16 8H8V11H16V8Z" fill="#737DF0"/>
</svg>
